<?xml version="1.0" encoding="utf-8"?>
<svg version="1.1" xmlns:xlink="http://www.w3.org/1999/xlink" width="13px" height="30px" xmlns="http://www.w3.org/2000/svg">
  <g transform="matrix(1 0 0 1 -51 -85 )">
    <path d="M 1.0148 4.0132  C 0.695036826256903 3.84313973926179  0.353646640293221 3.71732191353217  0 3.6392  L 0 0.2688  C 0.0903999999999989 0.31  0.179600000000001 0.354  0.268000000000001 0.4008  L 10.3072 5.7456  C 11.8730692378953 6.57920038751081  12.8515217397247 8.20846762526854  12.8516 9.9824  L 12.8516 20.0176  C 12.8516004465877 21.7914461598853  11.8733144305378 23.4206923048539  10.3076 24.2544  L 0.267600000000002 29.5992  C 0.179600000000001 29.646  0.0904000000000025 29.69  0 29.7312  L 0 26.3608  C 0.353666546648032 26.2825514542064  0.695057539431637 26.1565987662894  1.0148 25.9864  L 8.2732 22.1224  C 9.57800426964024 21.4276210943668  10.3932496468243 20.0698529916491  10.3932 18.5916  L 10.3932 11.408  C 10.3932496468243 9.92974700835091  9.57800426964024 8.57197890563321  8.2732 7.8772  L 1.0148 4.0132  Z " fill-rule="nonzero" fill="#1989fa" stroke="none" transform="matrix(1 0 0 1 51 85 )" />
  </g>
</svg>