<?xml version="1.0" encoding="utf-8"?>
<svg version="1.1" xmlns:xlink="http://www.w3.org/1999/xlink" width="16px" height="16px" xmlns="http://www.w3.org/2000/svg">
  <g transform="matrix(1 0 0 1 -40 -92 )">
    <path d="M 5.7148 4.328  C 4.6428 4.328  3.7276 4.7072  2.9692 5.4656  C 2.2108 6.224  1.8316 7.1392  1.8316 8.2112  C 1.8316 8.3824  1.7716 8.528  1.652 8.6476  C 1.532 8.7676  1.3868 8.8272  1.216 8.8272  C 1.0448 8.8272  0.899200000000001 8.7672  0.780000000000001 8.6476  C 0.660000000000001 8.5276  0.600000000000001 8.3824  0.600000000000001 8.2116  C 0.600000000000001 6.7972  1.0988 5.5912  2.0968 4.5932  C 3.0948 3.5952  4.3008 3.0964  5.7148 3.0964  L 11.6 3.0964  L 9.5468 1.0436  C 9.43320194689315 0.930643456374716  9.3713822881031 0.775732367603415  9.376 0.6156  C 9.376 0.4448  9.436 0.299599999999999  9.5556 0.1796  C 9.6756 0.0596000000000005  9.8208 0  9.9916 0  C 10.1628 0  10.3052 0.0572000000000008  10.4196 0.1712  L 13.5672 3.3188  C 13.6924 3.4444  13.7552 3.5896  13.7552 3.7548  C 13.7552 3.9204  13.6924 4.0656  13.5672 4.1912  L 10.5048 7.2364  C 10.3908 7.3616  10.2484 7.4244  10.0772 7.4244  C 9.90640000000001 7.4244  9.7608 7.3644  9.6412 7.2448  C 9.5212 7.1248  9.46120000000001 6.9796  9.46120000000001 6.8088  C 9.46120000000001 6.6376  9.524 6.4892  9.64960000000001 6.364  L 11.6856 4.328  L 5.7144 4.328  Z M 15.672 6.63720000000001  L 15.6712 6.6376  C 15.7968 6.7516  15.8592 6.894  15.8592 7.0652  C 15.8592 8.4792  15.3604 9.6852  14.3624 10.6832  C 13.3648 11.6812  12.1584 12.18  10.7444 12.18  L 4.86 12.18  L 6.9128 14.2332  C 7.0268 14.3472  7.084 14.4896  7.084 14.6608  C 7.084 14.8316  7.024 14.9772  6.904 15.0968  C 6.7844 15.2168  6.6392 15.2768  6.468 15.2768  C 6.3079460199774 15.2812011463451  6.15319260256575 15.219241873518  6.0404 15.1056  L 2.8924 11.9576  C 2.78145763800059 11.8396761121202  2.72027780082096 11.6835027572589  2.7216 11.5216  C 2.7216 11.3564  2.7788 11.2108  2.8928 11.0856  L 5.9548 8.0404  C 6.0688 7.9148  6.2116 7.8524  6.3828 7.8524  C 6.5536 7.8524  6.6988 7.912  6.8188 8.0316  C 6.9388 8.1516  6.9988 8.2968  6.9988 8.4676  C 6.9988 8.6392  6.9412 8.7816  6.8272 8.8956  L 4.7744 10.9484  L 10.7448 10.9484  C 11.8168 10.9484  12.732 10.5692  13.4904 9.81080000000001  C 14.2488 9.05240000000001  14.628 8.13720000000001  14.628 7.06520000000001  C 14.628 6.894  14.688 6.74880000000001  14.808 6.62920000000001  C 14.9276 6.50920000000001  15.0728 6.44920000000001  15.244 6.44920000000001  C 15.4152 6.44920000000001  15.5576 6.512  15.672 6.63720000000001  Z " fill-rule="nonzero" fill="#1989fa" stroke="none" transform="matrix(1 0 0 1 40 92 )" />
  </g>
</svg>