<svg t="1639469755568" class="icon" viewBox="0 0 1024 1024" version="1.1" xmlns="http://www.w3.org/2000/svg" p-id="22908" width="32" height="32"><path d="M720.128 541.952c7.68 0 15.36-2.944 21.12-8.704 11.648-11.648 11.648-30.592 0-42.24L324.992 74.624c-11.648-11.648-30.592-11.648-42.24 0-11.648 11.648-11.648 30.592 0 42.24l416.256 416.256c5.888 5.888 13.44 8.832 21.12 8.832z" p-id="22909" fill="#bfbfbf"></path><path d="M303.872 958.208c7.68 0 15.36-2.944 21.12-8.704l416.256-416.256c11.648-11.648 11.648-30.592 0-42.24-11.648-11.648-30.592-11.648-42.24 0L282.752 907.136c-11.648 11.648-11.648 30.592 0 42.24 5.76 5.888 13.44 8.832 21.12 8.832z" p-id="22910" fill="#bfbfbf"></path></svg>