<?xml version="1.0" encoding="utf-8"?>
<svg version="1.1" xmlns:xlink="http://www.w3.org/1999/xlink" width="12px" height="12px" viewBox="34 706.5  12 12" xmlns="http://www.w3.org/2000/svg">
  <path d="M 40 706.5  C 43.36 706.5  46 709.14  46 712.5  C 46 715.86  43.36 718.5  40 718.5  C 36.64 718.5  34 715.86  34 712.5  C 34 709.14  36.64 706.5  40 706.5  Z " fill-rule="nonzero" fill="#ffffff" stroke="none" />
  <path d="M 40 707  C 43.08 707  45.5 709.42  45.5 712.5  C 45.5 715.58  43.08 718  40 718  C 36.92 718  34.5 715.58  34.5 712.5  C 34.5 709.42  36.92 707  40 707  Z " stroke-width="1" stroke="#0881f7" fill="none" />
  <path d="M 40 715.5  C 38.32 715.5  37 714.18  37 712.5  C 37 710.82  38.32 709.5  40 709.5  C 41.68 709.5  43 710.82  43 712.5  C 43 714.18  41.68 715.5  40 715.5  " fill-rule="nonzero" fill="#0881f7" stroke="none" />
</svg>