<?xml version="1.0" encoding="utf-8"?>
<svg version="1.1" xmlns:xlink="http://www.w3.org/1999/xlink" width="12px" height="12px" viewBox="34 729.5  12 12" xmlns="http://www.w3.org/2000/svg">
  <path d="M 40 729.5  C 43.36 729.5  46 732.14  46 735.5  C 46 738.86  43.36 741.5  40 741.5  C 36.64 741.5  34 738.86  34 735.5  C 34 732.14  36.64 729.5  40 729.5  Z " fill-rule="nonzero" fill="#ffffff" stroke="none" />
  <path d="M 40 730  C 43.08 730  45.5 732.42  45.5 735.5  C 45.5 738.58  43.08 741  40 741  C 36.92 741  34.5 738.58  34.5 735.5  C 34.5 732.42  36.92 730  40 730  Z " stroke-width="1" stroke="#0881f7" fill="none" />
  <path d="M 40 738.5  C 38.32 738.5  37 737.18  37 735.5  C 37 733.82  38.32 732.5  40 732.5  C 41.68 732.5  43 733.82  43 735.5  C 43 737.18  41.68 738.5  40 738.5  " fill-rule="nonzero" fill="#0881f7" stroke="none" />
</svg>