<?xml version="1.0" encoding="utf-8"?>
<svg version="1.1" xmlns:xlink="http://www.w3.org/1999/xlink" width="7px" height="25px" xmlns="http://www.w3.org/2000/svg">
  <g transform="matrix(1 0 0 1 -223 -105 )">
    <path d="M 5.65 22.82  C 5.65 23.895  4.575 24.97  3.5 24.97  C 2.425 24.97  1.35 23.895  1.35 22.82  C 1.35 21.745  2.425 20.67  3.5 20.67  C 4.575 20.67  5.65 21.745  5.65 22.82  Z M 6.94 3.47  L 5.22 17.445  C 5.22 18.52  4.575 19.165  3.5 19.165  C 2.425 19.165  1.78 18.52  1.78 17.445  L 0.0600000000000023 3.47  C 0.0600000000000023 1.535  1.565 0.0299999999999976  3.5 0.0299999999999976  C 5.435 0.0299999999999976  6.94 1.535  6.94 3.47  Z " fill-rule="nonzero" fill="#ffffff" stroke="none" transform="matrix(1 0 0 1 223 105 )" />
  </g>
</svg>