<?xml version="1.0" encoding="utf-8"?>
<svg version="1.1" xmlns:xlink="http://www.w3.org/1999/xlink" width="8px" height="3px" xmlns="http://www.w3.org/2000/svg">
  <g transform="matrix(1 0 0 1 -74 -122 )">
    <path d="M 7.4703125 1.6796875  C 7.475 1.01875  6.93125 0.474999999999998  6.265625 0.474999999999998  C 5.6 0.474999999999998  5.0609375 1.0140625  5.0609375 1.6796875  C 5.0609375 2.3453125  5.6 2.884375  6.265625 2.884375  C 6.93125 2.884375  7.4703125 2.3453125  7.4703125 1.6796875  Z M 3.1296875 1.6796875  C 3.1296875 1.01875  2.590625 0.474999999999998  1.925 0.474999999999998  C 1.259375 0.474999999999998  0.720312499999999 1.0140625  0.720312499999999 1.6796875  C 0.720312499999999 2.3453125  1.259375 2.884375  1.925 2.884375  C 2.590625 2.884375  3.1296875 2.3453125  3.1296875 1.6796875  Z " fill-rule="nonzero" fill="#5271ff" stroke="none" transform="matrix(1 0 0 1 74 122 )" />
  </g>
</svg>