<?xml version="1.0" encoding="utf-8"?>
<svg version="1.1" xmlns:xlink="http://www.w3.org/1999/xlink" width="42px" height="42px" xmlns="http://www.w3.org/2000/svg">
  <g transform="matrix(1 0 0 1 -64 -96 )">
    <path d="M 41.784375 20.9578125  C 41.7796875 9.5109375  32.503125 0.140625  20.9578125 0.140625  C 9.4125 0.140625  0.1359375 9.5109375  0.1359375 20.9625  C 0.1359375 32.1328125  9.0328125 41.3109375  20.109375 41  L 32.3203125 41  C 33.2671875 41.784375  34.2140625 40.8375  34.2140625 39.890625  L 34.2140625 37.05  C 38.85 33.2625  41.784375 27.4921875  41.784375 20.9578125  Z M 31.4671875 30.3375  L 31.471875 30.3375  C 31.471875 31.40625  30.609375 32.26875  29.540625 32  L 10.2328125 32  C 9.1640625 32.26875  8.3015625 31.40625  8.3015625 30.3375  L 8.3015625 25.03125  C 8.3015625 23.9625  9.1640625 23.1  10.2328125 23  L 21.3328125 23  L 21.3328125 18.028125  C 21.3328125 17.3625  21.871875 16.8234375  22.5375 16.8234375  C 23.203125 16.8234375  23.7421875 17.3625  23.7421875 18.028125  L 23.7421875 23.0953125  L 29.5359375 23.0953125  C 30.6046875 23.0953125  31.4671875 23.9578125  31.4671875 25.0265625  L 31.4671875 30.3375  Z M 17.484375 18.028125  C 17.475 15.2296875  19.74375 12.9609375  22.5421875 12.9609375  C 25.340625 12.9609375  27.609375 15.2296875  27.609375 18.028125  C 27.609375 18.69375  27.0703125 19.2328125  26.4046875 19.2328125  C 25.7390625 19.2328125  25.2 18.69375  25.2 18.028125  C 25.2 16.5609375  24.0140625 15.375  22.546875 15.375  C 21.0796875 15.375  19.89375 16.5609375  19.89375 18.028125  C 19.89375 18.69375  19.3546875 19.2328125  18.6890625 19.2328125  C 18.0234375 19.2328125  17.484375 18.69375  17.484375 18.028125  Z M 31.48125 18.0328125  C 31.471875 18.69375  30.9328125 19.2375  30.2671875 19.2375  C 29.6015625 19.2375  29.0625 18.6984375  29.0625 18.0328125  C 29.0625 14.4328125  26.146875 11.5171875  22.546875 11.5171875  C 18.946875 11.5171875  16.03125 14.4328125  16.03125 18.0328125  C 16.03125 18.6984375  15.4921875 19.2375  14.8265625 19.2375  C 14.1609375 19.2375  13.621875 18.6984375  13.621875 18.0328125  C 13.621875 13.1015625  17.6203125 9.103125  22.5515625 9.103125  C 27.4875 9.103125  31.48125 13.1015625  31.48125 18.0328125  Z " fill-rule="nonzero" fill="#5271ff" stroke="none" transform="matrix(1 0 0 1 64 96 )" />
  </g>
</svg>