<?xml version="1.0" encoding="utf-8"?>
<svg version="1.1" xmlns:xlink="http://www.w3.org/1999/xlink" width="30px" height="29px" xmlns="http://www.w3.org/2000/svg">
  <g transform="matrix(1 0 0 1 -342 -103 )">
    <path d="M 15.0703125 0.0359374999999957  C 7.2703125 0.0499999999999972  0.956249999999999 6.378125  0.970312499999999 14.1921875  C 0.970312499999999 16.315625  1.453125 18.4109375  2.3671875 20.31875  L 2.3671875 24.6640625  C 2.38125 25.8828125  3.35625 26.871875  4.584375 26.8859375  L 8.925 26.8859375  C 15.91875 30.3265625  24.384375 27.425  27.8203125 20.403125  C 31.25625 13.38125  28.359375 4.92031249999999  21.346875 1.4796875  C 19.3828125 0.518749999999997  17.25 0.0218749999999961  15.0703125 0.0359374999999957  Z M 4.3734375 19.325  C 1.5328125 13.4421875  4.0078125 6.35  9.9 3.5046875  C 15.7921875 0.659375000000001  22.875 3.134375  25.715625 9.0546875  C 28.55625 14.975  26.08125 22.0484375  20.175 24.89375  C 18.5765625 25.6578125  16.8375 26.0703125  15.0609375 26.0703125  L 15.0609375 26.028125  L 15.075 26.028125  C 13.2796875 26.028125  11.5125 25.615625  9.90468749999999 24.8375  L 9.44062499999999 24.6125  L 4.5984375 24.6125  L 4.5984375 19.79375  L 4.3734375 19.325  Z " fill-rule="nonzero" fill="#ffffff" stroke="none" transform="matrix(1 0 0 1 342 103 )" />
  </g>
</svg>