<?xml version="1.0" encoding="utf-8"?>
<svg version="1.1" xmlns:xlink="http://www.w3.org/1999/xlink" width="18px" height="4px" xmlns="http://www.w3.org/2000/svg">
  <g transform="matrix(1 0 0 1 -348 -115 )">
    <path d="M 13.8046875 2.1921875  C 13.8046875 3.16718749999999  14.596875 3.959375  15.571875 3.959375  C 16.546875 3.959375  17.3390625 3.1671875  17.3390625 2.1921875  C 17.325 1.21718749999999  16.5328125 0.439062499999999  15.571875 0.424999999999997  C 14.596875 0.424999999999997  13.8046875 1.21718749999999  13.8046875 2.1921875  Z M 7.303125 2.1921875  C 7.303125 3.16718749999999  8.0953125 3.959375  9.0703125 3.959375  C 10.0453125 3.959375  10.8375 3.1671875  10.8375 2.1921875  C 10.8375 1.21718749999999  10.0453125 0.424999999999997  9.0703125 0.424999999999997  C 8.0953125 0.424999999999997  7.303125 1.21718749999999  7.303125 2.1921875  Z M 0.7734375 2.1921875  C 0.778125000000001 3.16718749999999  1.565625 3.959375  2.540625 3.959375  C 3.515625 3.959375  4.3078125 3.1671875  4.3078125 2.1921875  C 4.3078125 1.21718749999999  3.515625 0.424999999999997  2.540625 0.424999999999997  C 1.565625 0.424999999999997  0.7734375 1.21718749999999  0.7734375 2.1921875  Z " fill-rule="nonzero" fill="#ffffff" stroke="none" transform="matrix(1 0 0 1 348 115 )" />
  </g>
</svg>