<svg t="1642058938334" class="icon" viewBox="0 0 1024 1024" version="1.1" xmlns="http://www.w3.org/2000/svg" p-id="2571" width="43" height="43"><path d="M849.3568 706.56a151.808 151.808 0 0 0-276.48-104.4992 125.7472 125.7472 0 0 0-166.8608 100.6592 118.0672 118.0672 0 0 0 49.5104 225.28h336.9472A118.1696 118.1696 0 0 0 849.3568 706.56z m-56.8832 157.696H455.68a54.1184 54.1184 0 0 1-11.6736-106.9568l26.7776-5.8368-1.6896-27.3408v-3.7888a61.44 61.44 0 0 1 61.44-61.44 60.9792 60.9792 0 0 1 36.8128 12.1856l34.3552 25.6 14.848-40.3456a87.808 87.808 0 0 1 165.2736 59.392l-11.776 33.6896 34.7648 8.0384a54.1184 54.1184 0 0 1-12.2368 106.8032z" p-id="2572" fill="#5271FF"></path><path d="M160 864V160h112.0256v64h192v-64h111.9744v384h19.2A176.128 176.128 0 0 1 640 501.76V96H96v832h194.56a130.1504 130.1504 0 0 1-32.3072-64z" p-id="2573" fill="#5271FF"></path></svg>