<?xml version="1.0" encoding="utf-8"?>
<svg version="1.1" xmlns:xlink="http://www.w3.org/1999/xlink" width="22px" height="12px" xmlns="http://www.w3.org/2000/svg">
  <g transform="matrix(1 0 0 1 -9 -15 )">
    <path d="M 22 1.67568  C 22 0.88368  21.3458666666667 0.24  20.5392 0.24  L 1.4608 0.24  C 0.658533333333333 0.24  0 0.88296  0 1.67568  L 0 10.32432  C 0 11.1156  0.654133333333333 11.76  1.4608 11.76  L 20.5399333333333 11.76  C 21.3414666666667 11.76  22 11.11704  22 10.32432  L 22 1.67568  Z M 14.4892 2.81688  L 14.4892 2.20992  L 19.6108 2.20992  L 19.6108 2.8176  L 17.127 2.8176  L 16.852 3.95664  L 19.2236 3.95664  L 19.2236 7.998  L 18.5621333333333 7.998  L 18.5621333333333 4.5636  L 15.2452666666667 4.5636  L 15.2452666666667 8.03112  L 14.5838 8.03112  L 14.5838 3.95592  L 16.1905333333333 3.95592  L 16.4310666666667 2.81688  L 14.4892 2.81688  Z M 3.07633333333333 3.96528  L 3.07633333333333 2.08392  L 10.1148666666667 2.08392  L 10.1148666666667 3.96528  L 9.5304 3.96528  L 9.5304 3.77088  L 3.6696 3.77088  L 3.6696 3.96528  L 3.07633333333333 3.96528  Z M 10.8540666666667 9.26376  L 10.8540666666667 9.75336  L 2.32906666666667 9.75336  L 2.32906666666667 9.26376  L 3.60946666666667 9.26376  L 3.60946666666667 5.35704  L 6.2392 5.35704  L 6.2392 4.80912  L 2.53513333333333 4.80912  L 2.53513333333333 4.33608  L 6.2392 4.33608  L 6.2392 3.88896  L 6.85813333333333 3.88896  L 6.85813333333333 4.33608  L 10.6568 4.33608  L 10.6568 4.8084  L 6.85813333333333 4.8084  L 6.85813333333333 5.35704  L 9.66826666666666 5.35704  L 9.66826666666666 9.26376  L 10.8540666666667 9.26376  Z M 13.1816666666667 8.68992  L 13.1831333333333 8.68992  C 13.1831333333333 9.35952  12.8311333333333 9.69432  12.1264 9.69432  C 11.8345333333333 9.69432  11.5991333333333 9.68856  11.4216666666667 9.67776  C 11.3930666666667 9.41928  11.3468666666667 9.16872  11.2838 8.9268  C 11.5470666666667 8.98872  11.8191333333333 9.01968  12.1 9.01968  C 12.375 9.01968  12.5121333333333 8.89008  12.5121333333333 8.6316  L 12.5121333333333 3.02856  L 11.1283333333333 3.02856  L 11.1283333333333 2.41296  L 14.3249333333333 2.41296  L 14.3249333333333 3.02856  L 13.1816666666667 3.02856  L 13.1816666666667 8.68992  Z M 19.6372 9.49128  L 19.1554 10.0572  C 18.3876 9.43296  17.5824 8.84184  16.7405333333333 8.28528  C 16.6833333333333 8.3976  16.6202666666667 8.49912  16.5513333333333 8.58912  C 16.0761333333333 9.23064  15.2533333333333 9.73104  14.0851333333333 10.09104  C 13.9766 9.90528  13.8387333333333 9.70296  13.673 9.48336  C 14.7561333333333 9.17952  15.521 8.7576  15.9676 8.2176  C 16.3628666666667 7.71144  16.5608666666667 6.94608  16.5608666666667 5.92224  L 16.5608666666667 4.9776  L 17.2223333333333 4.9776  L 17.2223333333333 5.90568  C 17.2223333333333 6.60912  17.1453333333333 7.20816  16.9906 7.7028  C 17.9586 8.31048  18.8408 8.90664  19.6372 9.49128  Z " fill-rule="nonzero" fill="#d9001b" stroke="none" transform="matrix(1 0 0 1 9 15 )" />
  </g>
</svg>