<svg t="1642061517951" class="icon" viewBox="0 0 1024 1024" version="1.1" xmlns="http://www.w3.org/2000/svg" p-id="3915" width="43" height="43"><path d="M285.013333 928.426667c-5.12 0-11.946667-1.706667-17.066666-5.12C122.88 837.973333 34.133333 680.96 34.133333 513.706667c0-262.826667 215.04-477.866667 477.866667-477.866667s477.866667 215.04 477.866667 477.866667c0 18.773333-15.36 34.133333-34.133334 34.133333s-34.133333-15.36-34.133333-34.133333C923.306667 286.72 738.986667 102.4 512 102.4S100.693333 286.72 100.693333 513.706667c0 143.36 76.8 279.893333 199.68 353.28 15.36 10.24 20.48 30.72 11.946667 46.08-5.12 10.24-17.066667 15.36-27.306667 15.36z" fill="#FC5F46" p-id="3916"></path><path d="M407.893333 593.92c-11.946667 0-23.893333-6.826667-29.013333-18.773333-8.533333-17.066667-1.706667-35.84 15.36-44.373334l102.4-52.906666V273.066667c0-18.773333 15.36-34.133333 34.133333-34.133334s34.133333 15.36 34.133334 34.133334v225.28c0 11.946667-6.826667 23.893333-18.773334 29.013333l-121.173333 61.44c-6.826667 5.12-11.946667 5.12-17.066667 5.12z" fill="#FC5F46" p-id="3917"></path><path d="M969.386667 916.48L738.986667 549.546667c-8.533333-13.653333-23.893333-22.186667-39.253334-22.186667-17.066667 0-30.72 8.533333-39.253333 22.186667L430.08 916.48c-8.533333 13.653333-10.24 32.426667-1.706667 47.786667 8.533333 15.36 23.893333 23.893333 40.96 23.893333h459.093334c17.066667 0 32.426667-8.533333 40.96-23.893333 8.533333-15.36 8.533333-34.133333 0-47.786667zM733.866667 880.64c0 18.773333-15.36 34.133333-34.133334 34.133333s-34.133333-15.36-34.133333-34.133333v-56.32c0-18.773333 15.36-34.133333 34.133333-34.133333s34.133333 15.36 34.133334 34.133333v56.32z m-34.133334-119.466667c-23.893333 0-42.666667-18.773333-42.666666-42.666666s18.773333-42.666667 42.666666-42.666667 42.666667 18.773333 42.666667 42.666667-18.773333 42.666667-42.666667 42.666666z" fill="#FC5F46" p-id="3918"></path></svg>