<svg t="1642061702017" class="icon" viewBox="0 0 1024 1024" version="1.1" xmlns="http://www.w3.org/2000/svg" p-id="4880" width="43" height="43"><path d="M864 832H160c-64 0-115.2-51.2-115.2-115.2V307.2c0-64 51.2-115.2 115.2-115.2h704c64 0 115.2 51.2 115.2 115.2v403.2c0 70.4-51.2 121.6-115.2 121.6zM153.6 256c-25.6 0-51.2 25.6-51.2 51.2v403.2C102.4 742.4 128 768 153.6 768h704c32 0 51.2-25.6 51.2-51.2V307.2c0-32-25.6-51.2-51.2-51.2H153.6z" fill="#16D54A" p-id="4881"></path><path d="M512 646.4l-460.8-320 38.4-57.6 422.4 300.8 422.4-300.8 38.4 57.6-460.8 320z" fill="#16D54A" p-id="4882"></path></svg>