<?xml version="1.0" encoding="utf-8"?>
<svg version="1.1" xmlns:xlink="http://www.w3.org/1999/xlink" width="30px" height="30px" xmlns="http://www.w3.org/2000/svg">
  <g transform="matrix(1 0 0 1 -21 -11 )">
    <path d="M 30 5.00010372070312  C 29.999999994516 3.6193987933363  28.8808086373751 2.50006813043843  27.5001037207031 2.49989627929688  L 24.9998962792969 2.49989627929688  L 24.9998962792969 0  L 21.2498962792969 0  L 21.2498962792969 3  L 8.75010372070312 3  L 8.75010372070312 0  L 5.00010372070312 0  L 5.00010372070312 2.49989627929688  L 2.49989627929688 2.49989627929688  C 1.11919136262488 2.50006813043843  0 3.61939879333629  0 5.00010372070312  L 0 27.5001037207031  C 0.000171825325837808 28.8806871332737  1.11931286672635 29.9998281746742  2.49989627929688 30  L 27.5001037207031 30  C 28.8806871332737 29.9998281746742  29.9998281746742 28.8806871332737  30 27.5001037207031  L 30 5.00010372070312  Z M 27 10  L 27 27  L 3 27  L 3 10  L 27 10  Z " fill-rule="nonzero" fill="#0881f7" stroke="none" transform="matrix(1 0 0 1 21 11 )" />
  </g>
</svg>