<?xml version="1.0" encoding="utf-8"?>
<svg version="1.1" xmlns:xlink="http://www.w3.org/1999/xlink" width="330px" height="8px" xmlns="http://www.w3.org/2000/svg">
  <g transform="matrix(1 0 0 1 -50 -151 )">
    <path d="M 0 0.631578947368439  L 6.75731882898735 0.631578947368439  L 6.75731882898735 7.36842105263156  L 0 7.36842105263156  L 0 0.631578947368439  Z M 302.970724684051 0.631578947368439  L 302.970724684051 7.36842105263156  L 296.213405855063 7.36842105263156  L 296.213405855063 0.631578947368439  L 302.970724684051 0.631578947368439  Z M 289.456087026076 0.631578947368439  L 289.456087026076 7.36842105263156  L 282.698768197089 7.36842105263156  L 282.698768197089 0.631578947368439  L 289.456087026076 0.631578947368439  Z M 275.941449368101 0.631578947368439  L 275.941449368101 7.36842105263156  L 269.184130539114 7.36842105263156  L 269.184130539114 0.631578947368439  L 275.941449368101 0.631578947368439  Z M 256.039033754599 0.631578947368439  L 262.796352583587 0.631578947368439  L 262.796352583587 7.36842105263156  L 256.039033754599 7.36842105263156  L 256.039033754599 0.631578947368439  Z M 242.524396096625 0.631578947368439  L 249.281714925612 0.631578947368439  L 249.281714925612 7.36842105263156  L 242.524396096625 7.36842105263156  L 242.524396096625 0.631578947368439  Z M 229.00975843865 0.631578947368439  L 235.767077267637 0.631578947368439  L 235.767077267637 7.36842105263156  L 229.00975843865 7.36842105263156  L 229.00975843865 0.631578947368439  Z M 215.495120780675 0.631578947368439  L 222.252439609662 0.631578947368439  L 222.252439609662 7.36842105263156  L 215.495120780675 7.36842105263156  L 215.495120780675 0.631578947368439  Z M 201.9804831227 0.631578947368439  L 208.737801951688 0.631578947368439  L 208.737801951688 7.36842105263156  L 201.9804831227 7.36842105263156  L 201.9804831227 0.631578947368439  Z M 188.465845464726 0.631578947368439  L 195.223164293713 0.631578947368439  L 195.223164293713 7.36842105263156  L 188.465845464726 7.36842105263156  L 188.465845464726 0.631578947368439  Z M 174.951207806751 0.631578947368439  L 181.708526635738 0.631578947368439  L 181.708526635738 7.36842105263156  L 174.951207806751 7.36842105263156  L 174.951207806751 0.631578947368439  Z M 316.485362342025 0.631578947368439  L 316.485362342025 7.36842105263156  L 309.728043513038 7.36842105263156  L 309.728043513038 0.631578947368439  L 316.485362342025 0.631578947368439  Z M 161.436570148776 0.631578947368439  L 168.193888977764 0.631578947368439  L 168.193888977764 7.36842105263156  L 161.436570148776 7.36842105263156  L 161.436570148776 0.631578947368439  Z M 134.407294832827 0.631578947368439  L 141.164613661814 0.631578947368439  L 141.164613661814 7.36842105263156  L 134.407294832827 7.36842105263156  L 134.407294832827 0.631578947368439  Z M 121.631738921772 0.631578947368439  L 128.38905775076 0.631578947368439  L 128.38905775076 7.36842105263156  L 121.631738921772 7.36842105263156  L 121.631738921772 0.631578947368439  Z M 108.117101263798 0.631578947368439  L 114.874420092785 0.631578947368439  L 114.874420092785 7.36842105263156  L 108.117101263798 7.36842105263156  L 108.117101263798 0.631578947368439  Z M 94.6024636058231 0.631578947368439  L 101.35978243481 0.631578947368439  L 101.35978243481 7.36842105263156  L 94.6024636058231 7.36842105263156  L 94.6024636058231 0.631578947368439  Z M 81.0878259478483 0.631578947368439  L 87.8451447768357 0.631578947368439  L 87.8451447768357 7.36842105263156  L 81.0878259478483 7.36842105263156  L 81.0878259478483 0.631578947368439  Z M 67.5731882898736 0.631578947368439  L 74.330507118861 0.631578947368439  L 74.330507118861 7.36842105263156  L 67.5731882898736 7.36842105263156  L 67.5731882898736 0.631578947368439  Z M 54.0585506318989 0.631578947368439  L 60.8158694608862 0.631578947368439  L 60.8158694608862 7.36842105263156  L 54.0585506318989 7.36842105263156  L 54.0585506318989 0.631578947368439  Z M 40.5439129739242 0.631578947368439  L 47.3012318029115 0.631578947368439  L 47.3012318029115 7.36842105263156  L 40.5439129739242 7.36842105263156  L 40.5439129739242 0.631578947368439  Z M 27.0292753159494 0.631578947368439  L 33.7865941449368 0.631578947368439  L 33.7865941449368 7.36842105263156  L 27.0292753159494 7.36842105263156  L 27.0292753159494 0.631578947368439  Z M 13.5146376579747 0.631578947368439  L 20.2719564869621 0.631578947368439  L 20.2719564869621 7.36842105263156  L 13.5146376579747 7.36842105263156  L 13.5146376579747 0.631578947368439  Z M 147.921932490801 0.631578947368439  L 154.679251319789 0.631578947368439  L 154.679251319789 7.36842105263156  L 147.921932490801 7.36842105263156  L 147.921932490801 0.631578947368439  Z M 330 0.631578947368439  L 330 7.36842105263156  L 323.242681171013 7.36842105263156  L 323.242681171013 0.631578947368439  L 330 0.631578947368439  Z " fill-rule="nonzero" fill="#0881f7" stroke="none" transform="matrix(1 0 0 1 50 151 )" />
  </g>
</svg>