<?xml version="1.0" encoding="utf-8"?>
<svg version="1.1" xmlns:xlink="http://www.w3.org/1999/xlink" width="16px" height="10px" xmlns="http://www.w3.org/2000/svg">
  <g transform="matrix(1 0 0 1 -176 -172 )">
    <path d="M 15.5268964232955 1.75891888822115  C 15.7750791164773 1.4943194140625  15.7731976477273 1.06827556189904  15.5237150426136 0.806425943509615  C 15.2736166960227 0.545263768028846  14.8714273409091 0.546602518028846  14.6238946335227 0.810478329326923  L 8.10437013920455 7.76941167668269  L 1.49381680965909 0.8401114453125  C 1.24371846306818 0.578298004807692  0.841529107954546 0.58028801983173  0.593346434659091 0.844163831129808  C 0.345813727272727 1.10869092848558  0.347695196022727 1.53473478064904  0.59717778125 1.79658442007212  L 7.62326176988636 9.16072076021634  C 7.63407165909091 9.172154296875  7.64806292897727 9.17486795372596  7.65890702272727 9.18561402644231  C 7.66143845738636 9.18829150540865  7.66208840340909 9.19165642728365  7.66461983806818 9.19437008413462  C 7.7886940625 9.32426370793269  7.95097919886364 9.38957234074519  8.11261436931818 9.38957234074519  C 8.27616521306818 9.38957234074519  8.44033179829545 9.32292497896635  8.56444024715909 9.19035387620192  L 15.5268964232955 1.75891888822115  Z " fill-rule="nonzero" fill="#0881f7" stroke="none" transform="matrix(1 0 0 1 176 172 )" />
  </g>
</svg>