<?xml version="1.0" encoding="utf-8"?>
<svg version="1.1" xmlns:xlink="http://www.w3.org/1999/xlink" width="52px" height="52px" xmlns="http://www.w3.org/2000/svg">
  <defs>
    <path d="M 0 0  L 1024 0  L 1024 1024  L 0 1024  Z " fill-rule="evenodd" fill="black" id="path226" />
    <clipPath id="clip227">
      <use xlink:href="#path226" />
    </clipPath>
    <filter x="-50.00%" y="-50.00%" width="200.00%" height="200.00%" filterUnits="objectBoundingBox" id="filter228">
      <feColorMatrix type="matrix" values="1 0 0 0 0  0 1 0 0 0  0 0 1 0 0  0 0 0 1 0  " in="SourceGraphic" />
    </filter>
    <filter x="167px" y="261px" width="52px" height="52px" filterUnits="userSpaceOnUse" id="filter229">
      <feOffset dx="2" dy="2" in="SourceAlpha" result="shadowOffsetInner" />
      <feGaussianBlur stdDeviation="1" in="shadowOffsetInner" result="shadowGaussian" />
      <feComposite in2="shadowGaussian" operator="atop" in="SourceAlpha" result="shadowComposite" />
      <feColorMatrix type="matrix" values="0 0 0 0 0  0 0 0 0 0  0 0 0 0 0  0 0 0 0.349019607843137 0  " in="shadowComposite" />
    </filter>
    <g id="widget230">
      <g transform="matrix(0.046875 0 0 0.046875 167 261 )" clip-path="url(#clip227)" filter="url(#filter228)">
        <path d="M856.504218 221.143633h-30.332842v114.446565c0 16.335037-12.295024 32.673144-24.50409 32.673143-12.205996 0-24.50409-12.209066-24.504091-32.673143v-114.446565H670.886707c-20.464077 0-36.802184-12.298094-36.802184-24.504091 0-12.298094 16.338107-24.50409 36.802184-24.50409H777.164219v-21.546735c-75.0503-52.703339-166.491918-83.647095-265.163196-83.647095-255.123538 0-461.938837 206.815299-461.938837 461.937814 0 255.120468 206.815299 461.934744 461.938837 461.934744 255.120468 0 461.937814-206.814276 461.937814-461.934744-0.001023-118.206192-44.404326-226.037083-117.434619-307.735803zM613.620445 572.645219c16.335037 0 32.673144 12.298094 32.673144 32.673143 0 16.338107-12.298094 32.673144-32.673144 32.673144h-93.979418v89.939405c0 16.338107-12.298094 32.673144-32.673143 32.673143-20.37505 0-32.673144-12.295024-32.673144-32.673143v-89.847308h-89.939405c-16.338107 0-32.673144-12.298094-32.673144-32.673143 0-16.338107 12.295024-32.673144 32.673144-32.673144h89.939405v-61.306274h-89.939405c-16.338107 0-32.673144-12.298094-32.673144-32.673144 0-16.338107 12.295024-32.673144 32.673144-32.673143h89.939405v-4.129041L343.889211 327.420121c-12.298094-12.298094-12.298094-32.673144 0-44.971237 12.298094-12.295024 32.673144-12.295024 44.971238 0l102.148471 102.148471 98.105388-102.148471c12.298094-12.295024 32.673144-12.295024 44.971238 0 12.298094 16.338107 12.298094 32.762171 0 44.971237L519.641027 445.992657h93.979418c16.335037 0 32.673144 12.298094 32.673144 32.673144 0 16.338107-12.298094 32.673144-32.673144 32.673143h-93.979418v61.306275h93.979418z m242.883773-351.501586h75.94467c20.464077 0 36.802184-8.169053 36.802184-20.464078 0-12.209066-16.338107-24.50716-36.802184-24.50716H826.171376V65.85794c0-16.338107-12.295024-32.673144-24.50409-32.673143-12.205996 0-24.50409 12.209066-24.504091 32.673143v84.730777a464.488917 464.488917 0 0 1 79.341023 70.554916z" p-id="25537" fill="#e0620d"></path>
      </g>
    </g>
  </defs>
  <g transform="matrix(1 0 0 1 -167 -261 )">
    <use xlink:href="#widget230" filter="url(#filter229)" />
    <use xlink:href="#widget230" />
  </g>
</svg>