<?xml version="1.0" encoding="utf-8"?>
<svg version="1.1" xmlns:xlink="http://www.w3.org/1999/xlink" width="52px" height="52px" xmlns="http://www.w3.org/2000/svg">
  <defs>
    <path d="M 0 0  L 1038 0  L 1038 1024  L 0 1024  Z " fill-rule="evenodd" fill="black" id="path231" />
    <clipPath id="clip232">
      <use xlink:href="#path231" />
    </clipPath>
    <filter x="-50.00%" y="-50.00%" width="200.00%" height="200.00%" filterUnits="objectBoundingBox" id="filter233">
      <feColorMatrix type="matrix" values="1 0 0 0 0  0 1 0 0 0  0 0 1 0 0  0 0 0 1 0  " in="SourceGraphic" />
    </filter>
    <filter x="270px" y="261px" width="52px" height="52px" filterUnits="userSpaceOnUse" id="filter234">
      <feOffset dx="2" dy="2" in="SourceAlpha" result="shadowOffsetInner" />
      <feGaussianBlur stdDeviation="1" in="shadowOffsetInner" result="shadowGaussian" />
      <feComposite in2="shadowGaussian" operator="atop" in="SourceAlpha" result="shadowComposite" />
      <feColorMatrix type="matrix" values="0 0 0 0 0  0 0 0 0 0  0 0 0 0 0  0 0 0 0.349019607843137 0  " in="shadowComposite" />
    </filter>
    <g id="widget235">
      <g transform="matrix(0.046242774566474 0 0 0.046242774566474 270 261.323699421965 )" clip-path="url(#clip232)" filter="url(#filter233)">
        <path d="M519.111111 0c282.766222 0 512 229.233778 512 512s-229.233778 512-512 512S7.111111 794.766222 7.111111 512s229.233778-512 512-512zM540.444444 221.667556a28.444444 28.444444 0 0 0-40.220444 0l-268.515556 268.487111A14.222222 14.222222 0 0 0 241.777778 514.446222l79.431111-0.014222v241.777778a28.444444 28.444444 0 0 0 28.444444 28.444444h341.333334a28.444444 28.444444 0 0 0 28.444444-28.444444v-241.777778h79.459556a14.222222 14.222222 0 0 0 10.055111-24.277333z m-90.311111 225.038222a17.493333 17.493333 0 0 1 26.097778 0.042666l42.88 43.079112 42.88-43.079112 1.379556-1.336888a17.493333 17.493333 0 0 1 23.466666 0.426666 17.777778 17.777778 0 0 1 0 25.927111L548.977778 509.909333h44.999111l1.792 0.085334c8.874667 0.910222 15.786667 8.448 15.786667 17.607111a17.635556 17.635556 0 0 1-17.578667 17.706666h-57.287111v32.654223l57.287111 0.099555 1.792 0.085334c8.874667 0.910222 15.786667 8.448 15.786667 17.607111a17.635556 17.635556 0 0 1-17.578667 17.706666h-57.287111v51.512889l-0.085334 1.806222A17.635556 17.635556 0 0 1 519.111111 682.666667a17.635556 17.635556 0 0 1-17.578667-17.692445v-51.512889h-57.287111l-1.792-0.099555A17.649778 17.649778 0 0 1 426.666667 595.768889a17.635556 17.635556 0 0 1 17.578666-17.692445h57.287111v-32.654222h-57.287111l-1.792-0.099555A17.649778 17.649778 0 0 1 426.666667 527.701333a17.635556 17.635556 0 0 1 17.578666-17.692444H489.244444l-37.888-38.300445-1.351111-1.379555a17.792 17.792 0 0 1 0.142223-23.623111z" fill="#7cba59" p-id="27512"></path>
      </g>
    </g>
  </defs>
  <g transform="matrix(1 0 0 1 -270 -261 )">
    <use xlink:href="#widget235" filter="url(#filter234)" />
    <use xlink:href="#widget235" />
  </g>
</svg>