<?xml version="1.0" encoding="utf-8"?>
<svg version="1.1" xmlns:xlink="http://www.w3.org/1999/xlink" width="56px" height="56px" xmlns="http://www.w3.org/2000/svg">
  <defs>
    <filter x="164px" y="670px" width="56px" height="56px" filterUnits="userSpaceOnUse" id="filter238">
      <feOffset dx="1" dy="1" in="SourceAlpha" result="shadowOffsetInner" />
      <feGaussianBlur stdDeviation="1" in="shadowOffsetInner" result="shadowGaussian" />
      <feComposite in2="shadowGaussian" operator="atop" in="SourceAlpha" result="shadowComposite" />
      <feColorMatrix type="matrix" values="0 0 0 0 0  0 0 0 0 0  0 0 0 0 0  0 0 0 0.349019607843137 0  " in="shadowComposite" />
    </filter>
    <g id="widget239">
      <path d="M 191 671  C 205.56 671  217 682.44  217 697  C 217 711.56  205.56 723  191 723  C 176.44 723  165 711.56  165 697  C 165 682.44  176.44 671  191 671  Z " fill-rule="nonzero" fill="#0881f7" stroke="none" />
      <path d="M 191 671.5  C 205.28 671.5  216.5 682.72  216.5 697  C 216.5 711.28  205.28 722.5  191 722.5  C 176.72 722.5  165.5 711.28  165.5 697  C 165.5 682.72  176.72 671.5  191 671.5  Z " stroke-width="1" stroke="#0881f7" fill="none" />
    </g>
  </defs>
  <g transform="matrix(1 0 0 1 -164 -670 )">
    <use xlink:href="#widget239" filter="url(#filter238)" />
    <use xlink:href="#widget239" />
  </g>
</svg>