<?xml version="1.0" encoding="utf-8"?>
<svg version="1.1" xmlns:xlink="http://www.w3.org/1999/xlink" width="45px" height="32px" xmlns="http://www.w3.org/2000/svg">
  <g transform="matrix(1 0 0 1 -168 -675 )">
    <path d="M 10.5380419921875 31.04548828125  C 4.78551269531249 31.04548828125  0.00026367187501819 26.36830078125  0.00026367187501819 20.615771484375  C 0.00026367187501819 15.9653906250001  3.19943847656248 11.8793115234375  7.47307617187499 10.6696728515625  C 9.83895996093747 4.67491699218749  15.699287109375 0.373681640625023  22.5539208984375 0.373681640625023  C 29.46251953125 0.373681640625023  35.1613037109375 4.67491699218749  37.5267041015625 10.6696728515625  C 41.9354296875 11.906162109375  44.9997802734375 15.9382763671875  44.9997802734375 20.615771484375  C 44.9997802734375 26.36830078125  40.3492236328125 31.04548828125  34.4626171875 31.04548828125  C 33.360380859375 31.04548828125  32.3656787109375 30.0512255859375  32.3656787109375 28.949296875  C 32.3656787109375 27.6856494140625  33.360380859375 26.8520947265625  34.4626171875 26.8520947265625  C 38.0107177734375 26.8520947265625  40.83345703125 24.0835400390625  40.83345703125 20.615771484375  C 40.83345703125 18.761015625  39.99990234375 17.040556640625  38.628984375 15.9383203125  L 38.2529443359375 15.5887353515625  C 38.1451904296875 15.454306640625  37.9838232421875 15.3472119140625  37.769150390625 15.2126953125  C 37.6611767578125 15.07787109375  37.4195654296875 15.07787109375  37.28513671875 14.9705126953124  L 37.1508837890625 14.9705126953124  C 37.0431298828125 14.836259765625  36.9086572265625 14.836259765625  36.8013427734375 14.7287255859375  L 36.6668701171875 14.7287255859375  C 36.559072265625 14.7287255859375  36.4246435546875 14.593857421875  36.2904345703125 14.593857421875  C 36.182900390625 14.593857421875  36.0486474609375 14.593857421875  36.0486474609375 14.48654296875  L 35.6990625 14.48654296875  C 35.5646337890625 14.48654296875  35.457275390625 14.48654296875  35.322451171875 14.35224609375  L 34.3281884765625 14.35224609375  C 34.220390625 13.9491357421875  34.0859619140625 13.653603515625  34.0859619140625 13.2500537109374  C 33.978603515625 13.2500537109374  33.978603515625 13.11580078125  33.978603515625 13.0084423828125  C 33.8443505859375 12.7660400390625  33.8443505859375 12.5244287109375  33.7370361328125 12.28224609375  C 33.7370361328125 12.1477734375  33.60216796875 12.1477734375  33.60216796875 12.013564453125  C 33.494853515625 11.77177734375  33.360380859375 11.52955078125  33.2261279296875 11.2879833984375  L 33.2261279296875 11.0457128906249  C 33.118154296875 10.8040136718749  32.8763671875 10.5616992187501  32.7421142578125 10.3199560546875  C 30.6721142578125 6.87921386718745  26.85533203125 4.54044433593754  22.5539208984375 4.54044433593754  C 18.14537109375 4.54044433593754  14.3286328125 6.87921386718745  12.2585888671875 10.3199560546875  L 11.90900390625 11.0457128906249  C 11.90900390625 11.1266162109375  11.8550390625 11.1266162109375  11.8285400390625 11.207080078125  L 11.7745751953125 11.2879833984375  L 11.3981396484375 12.013564453125  L 11.3981396484375 12.28224609375  L 11.048994140625 13.0084423828125  L 11.048994140625 13.2500537109374  C 10.914169921875 13.653603515625  10.779873046875 13.9491357421875  10.779873046875 14.35224609375  L 9.67759277343748 14.35224609375  C 9.57027832031253 14.48654296875  9.43606933593753 14.48654296875  9.32875488281252 14.48654296875  L 9.08626464843752 14.48654296875  C 8.97895019531251 14.5674462890624  8.92511718750001 14.593857421875  8.89804687500003 14.593857421875  C 8.87115234375 14.6207080078125  8.84469726562503 14.6207080078125  8.81758300781252 14.593857421875  C 8.7102685546875 14.593857421875  8.5756201171875 14.7287255859375  8.46804199218752 14.7287255859375  L 8.22643066406249 14.7287255859375  C 8.09160644531249 14.836259765625  7.98420410156251 14.836259765625  7.84977539062498 14.9705126953126  L 7.71556640624999 14.9705126953126  C 7.60816406250001 15.07787109375  7.47329589843753 15.07787109375  7.36598144531251 15.2126953125  L 7.2315087890625 15.2126953125  C 7.12419433593749 15.3472119140625  6.9899853515625 15.454306640625  6.85511718750001 15.5887353515625  C 6.6132861328125 15.6961376953125  6.50597167968749 15.8309619140625  6.37110351562501 15.9383203125  C 5.00040527343754 17.0406005859375  4.30167480468754 18.761015625  4.30167480468754 20.615771484375  C 4.30167480468754 24.0835400390625  7.12419433593749 26.8520947265625  10.5380419921875 26.8520947265625  C 11.8016455078125 26.8520947265625  12.7426025390625 27.6856494140625  12.7426025390625 28.949296875  C 12.7426025390625 30.0512255859375  11.8016455078125 31.04548828125  10.5380419921875 31.04548828125  Z " fill-rule="nonzero" fill="#ffffff" stroke="none" transform="matrix(1 0 0 1 168 675 )" />
  </g>
</svg>