<?xml version="1.0" encoding="utf-8"?>
<svg version="1.1" xmlns:xlink="http://www.w3.org/1999/xlink" width="20px" height="30px" xmlns="http://www.w3.org/2000/svg">
  <g transform="matrix(1 0 0 1 -181 -688 )">
    <path d="M 19 26.6278125  C 19.336875 27.9396875  18.2696875 29.006875  16.9578125 29  L 3.0628125 29  C 1.7509375 29.006875  0.68375 27.9396875  1 26.6278125  L 1 3.323125  C 0.68375 2.01125  1.7509375 0.9440625  3.0628125 1  L 16.9578125 1  C 18.2696875 0.9440625  19.336875 2.01125  19 3.323125  L 19 26.6278125  Z M 16.9578125 3  L 3.0628125 3  C 2.85375 2.9440625  2.68375 3.1140625  3 3.323125  L 3 26.6278125  C 2.68375 26.836875  2.85375 27.006875  3.0628125 27  L 16.9578125 27  C 17.166875 27.006875  17.336875 26.836875  17 26.6278125  L 17 3.323125  C 17.336875 3.1140625  17.166875 2.9440625  16.9578125 3  Z " fill-rule="nonzero" fill="#ffffff" stroke="none" transform="matrix(1 0 0 1 181 688 )" />
  </g>
</svg>