<?xml version="1.0" encoding="utf-8"?>
<svg version="1.1" xmlns:xlink="http://www.w3.org/1999/xlink" width="23px" height="22px" xmlns="http://www.w3.org/2000/svg">
  <g transform="matrix(1 0 0 1 -31 -678 )">
    <path d="M 23 4.44093357065217  C 22.9191178346354 2.25215111956522  21.1348222473958 0.47122852173913  18.9418944049479 0.47122852173913  L 4.08648370182292 0.47122852173913  C 1.89355582942708 0.47122852173913  0.109260272135416 2.25215114945652  0.109260272135416 4.44093357065217  L 0.109260272135416 18.025534701087  C 0.109260272135416 20.2143171521739  1.893555859375 21.99523975  4.08648370182292 22  L 18.9418944049479 22  C 21.1348222773438 21.99523975  22.9191178346354 20.2143171222826  23 18.025534701087  L 23 4.44093357065217  Z M 21 18.0255652798913  L 21.0483395520833 18.0255652798913  C 21.0483395520833 19.1850017771739  20.1034961679688 20.1280285190217  18.941894375 20  L 4.08648370182292 20  C 2.92485130208333 20.1280284891304  1.98003852473958 19.1849711983696  2 18.02556525  L 2 4.44093357065217  C 1.98003852473958 3.28149707336956  2.92488190885417 2.33847033152174  4.08648370182292 2.33847033152174  L 5.63661404296875 2.33847033152174  C 5.63655273958333 2.34250792934783  5.6354188515625 2.34627025815217  5.6354188515625 2.35030785597826  L 5.6354188515625 3.57841433423913  C 5.6354188515625 4.09415788315217  6.05410297526042 4.51201996467391  6.57079267447917 4.51201996467391  C 7.08748237369792 4.51201996467391  7.50616649739584 4.09412730434783  7.50616649739584 3.57841433423913  L 7.50616649739584 2.35030785597826  C 7.50616649739584 2.34623964945652  7.505032609375 2.34250792934783  7.50497130598958 2.33847033152174  L 15.5233455273438 2.33847033152174  C 15.5232842239583 2.34250792934783  15.5221503359375 2.34627025815217  15.5221503359375 2.35030785597826  L 15.5221503359375 3.57841433423913  C 15.5221503359375 4.09415788315217  15.9408344596354 4.51201996467391  16.4575547955729 4.51201996467391  C 16.9742751315104 4.51201996467391  17.3929286184896 4.09412730434783  17.3929286184896 3.57841433423913  L 17.3929286184896 2.35030785597826  C 17.3929286184896 2.34623964945652  17.3917947304688 2.34250792934783  17.3917334270833 2.33847033152174  L 18.9418637682292 2.33847033152174  C 20.1034961679688 2.33847033152174  21.0483089453125 3.28152762228261  21 4.44093357065217  L 21 18.0255652798913  Z " fill-rule="nonzero" fill="#0881f7" stroke="none" transform="matrix(1 0 0 1 31 678 )" />
  </g>
</svg>