<?xml version="1.0" encoding="utf-8"?>
<svg version="1.1" xmlns:xlink="http://www.w3.org/1999/xlink" width="14px" height="5px" xmlns="http://www.w3.org/2000/svg">
  <g transform="matrix(1 0 0 1 -36 -673 )">
    <path d="M 0.984430593750002 3.28029196875  C 0.750541125 3.76166159375  0.950085843749999 4.33739925  1.42953678125 4.57602146875  C 1.9093075 4.8146436875  2.49297578125 4.61797703125  2.73604296875 4.14137215625  C 2.78148415625 4.05272825  3.88176215625 1.9668465  7.028204875 1.9668465  C 10.16863565625 1.9668465  11.2450898125 4.0460448125  11.28544646875 4.1261185  C 11.45256515625 4.47752825  11.80269578125 4.683084875  12.16747246875 4.683084875  C 12.30792125 4.683084875  12.4508963125 4.6525775625  12.5862285625 4.58807728125  C 13.0729705625 4.3564583125  13.27983828125 3.7740691875  13.04821934375 3.28729521875  C 12.9846784375 3.1538496875  11.440509375 0.0146980312499987  7.02823690625 0.0146980312499987  C 2.62168853125 0.0146980312499987  1.04925065625 3.1468464375  0.984430593750002 3.28029196875  Z " fill-rule="nonzero" fill="#0881f7" stroke="none" transform="matrix(1 0 0 1 36 673 )" />
  </g>
</svg>