<?xml version="1.0" encoding="utf-8"?>
<svg version="1.1" xmlns:xlink="http://www.w3.org/1999/xlink" width="6px" height="4px" xmlns="http://www.w3.org/2000/svg">
  <g transform="matrix(1 0 0 1 -40 -687 )">
    <path d="M 5.7102264375 2.38135540625  C 6.000941375 1.9276470625  5.86877496875 1.3236405625  5.4147148125 1.0329256875  C 4.960366875 0.742530562500001  4.3569999375 0.87405740625  4.0662850625 1.32840534375  C 4.06247965625 1.33444925  3.64816853125 1.93621725  3.00476478125 1.93621725  C 2.3801003125 1.93621725  1.99153175 1.37064871875  1.96482984375 1.330931625  C 1.677920375 0.880069312499998  1.080917125 0.742818374999999  0.62624940625 1.02592240625  C 0.168415812500001 1.310273625  0.0276472500000011 1.91207359375  0.31235021875 2.3699071875  C 0.662800624999999 2.9338768125  1.62426075 3.8883336875  3.00476475 3.8883336875  C 4.3782975 3.8883336875  5.35149365625 2.94119984375  5.7102264375 2.38135540625  Z " fill-rule="nonzero" fill="#d9001b" stroke="none" transform="matrix(1 0 0 1 40 687 )" />
  </g>
</svg>