<svg t="1638953971635" class="icon" viewBox="0 0 1024 1024" version="1.1" xmlns="http://www.w3.org/2000/svg" p-id="4679" width="32" height="32"><path d="M391.224889 675.555556l138.353778-124.643556c11.377778-10.24 27.648-13.198222 41.927111-7.850667a38.513778 38.513778 0 1 1 12.970666 65.194667l-165.831111 149.276444a40.96 40.96 0 0 1-27.420444 10.467556 40.903111 40.903111 0 0 1-27.420445-10.467556l-94.435555-84.992a38.4 38.4 0 0 1-11.832889-39.765333 39.708444 39.708444 0 0 1 29.240889-27.306667 40.96 40.96 0 0 1 37.091555 9.443556l67.356445 60.643556z" p-id="4680" fill="#0881F7"></path><path d="M170.666667 341.333333a56.888889 56.888889 0 0 0-56.888889 56.888889v455.111111a56.888889 56.888889 0 0 0 56.888889 56.888889h455.111111a56.888889 56.888889 0 0 0 56.888889-56.888889V398.222222a56.888889 56.888889 0 0 0-56.888889-56.888889H170.666667z m0-113.777777h455.111111a170.666667 170.666667 0 0 1 170.666666 170.666666v455.111111a170.666667 170.666667 0 0 1-170.666666 170.666667H170.666667a170.666667 170.666667 0 0 1-170.666667-170.666667V398.222222a170.666667 170.666667 0 0 1 170.666667-170.666666z" p-id="4681" fill="#0881F7"></path><path d="M707.584 682.666667H853.333333a56.888889 56.888889 0 0 0 56.888889-56.888889V170.666667a56.888889 56.888889 0 0 0-56.888889-56.888889H398.222222a56.888889 56.888889 0 0 0-56.888889 56.888889v118.556444H227.555556V170.666667a170.666667 170.666667 0 0 1 170.666666-170.666667h455.111111a170.666667 170.666667 0 0 1 170.666667 170.666667v455.111111a170.666667 170.666667 0 0 1-170.666667 170.666666h-145.749333v-113.777777z" p-id="4682" fill="#0881F7"></path></svg>