<?xml version="1.0" encoding="utf-8"?>
<svg version="1.1" xmlns:xlink="http://www.w3.org/1999/xlink" width="32px" height="32px" xmlns="http://www.w3.org/2000/svg">
  <g transform="matrix(1 0 0 1 -28 -23 )">
    <path d="M 15 10.98  C 14.9977950597327 13.1992707365152  13.1992707365152 14.9977950597327  10.98 15  L 4.02 15  C 1.80072926348483 14.9977950597327  0.00220494026726017 13.1992707365152  0 10.98  L 0 4.02  C 0.00220494026726042 1.80072926348483  1.80072926348483 0.00220494026726042  4.02 0  L 10.98 0  C 13.1992707365152 0.00220494026726018  14.9977950597327 1.80072926348483  15 4.02  L 15 10.98  Z M 10.98 3  L 4.02 3  C 3.458 3  3 3.458  3 4.02  L 3 10.98  C 3 11.542  3.458 12  4.02 12  L 10.98 12  C 11.542 12  12 11.542  12 10.98  L 12 4.02  C 12 3.458  11.542 3  10.98 3  Z M 15 27.98  C 14.997245133267 30.1990425894402  13.1990425894402 31.997245133267  10.98 32  L 4.02 32  C 1.80056751322384 31.9972440331597  0.00220393779039841 30.198433103603  0 27.979  L 0 21.02  C 0.00275486673300233 18.8009574105598  1.80095741055976 17.002754866733  4.02 17  L 10.98 17  C 13.1994324867762 17.0027559668403  14.9977960622096 18.801566896397  15 21.021  L 15 27.98  Z M 10.98 20  L 4.02 20  C 3.458 20  3 20.458  3 21.021  L 3 27.98  C 3 28.542  3.458 29  4.02 29  L 10.98 29  C 11.542 29  12 28.542  12 27.979  L 12 21.02  C 12 20.458  11.542 20  10.98 20  Z M 30.5 22.083  C 30.5 22.083  30.5 22.083  30.5 22  L 18.5 22  C 18.5 22.083  18.5 22.083  18.5 22.083  C 17.6715728752538 22.083  17 21.4114271247462  17 20.583  C 17 19.7545728752538  17.6715728752538 19.083  18.5 19.083  C 18.5 19.083  18.5 19.083  18.5 19  L 30.5 19  C 30.5 19.083  30.5 19.083  30.5 19.083  C 31.3284271247462 19.083  32 19.7545728752538  32 20.583  C 32 21.4114271247462  31.3284271247462 22.083  30.5 22.083  Z M 30.5 29.917  C 30.5 29.917  30.5 29.917  30.5 30  L 18.5 30  C 18.5 29.917  18.5 29.917  18.5 29.917  C 17.6715728752538 29.917  17 29.2454271247462  17 28.417  C 17 27.5885728752538  17.6715728752538 26.917  18.5 26.917  C 18.5 26.917  18.5 26.917  18.5 27  L 30.5 27  C 30.5 26.917  30.5 26.917  30.5 26.917  C 31.3284271247462 26.917  32 27.5885728752538  32 28.417  C 32 29.2454271247462  31.3284271247462 29.917  30.5 29.917  Z " fill-rule="nonzero" fill="#0881f7" stroke="none" transform="matrix(1 0 0 1 28 23 )" />
  </g>
</svg>