<?xml version="1.0" encoding="utf-8"?>
<svg version="1.1" xmlns:xlink="http://www.w3.org/1999/xlink" width="15px" height="11px" xmlns="http://www.w3.org/2000/svg">
  <g transform="matrix(1 0 0 1 -45 -25 )">
    <path d="M 13.5000000044703 3.083  C 13.5000000044703 3.083  13.4999999821186 3.083  13.4999999821186 3  L 1.50000001788139 3  C 1.50000001788139 3.083  1.49999999552965 3.083  1.49999999552965 3.083  C 0.671572873252365 3.083  0 2.41142712474619  0 1.583  C 0 0.754572875253809  0.671572873252365 0.0829999999999997  1.49999999552965 0.0829999999999997  C 1.49999999552965 0.0829999999999997  1.50000001788139 0.0830000000000002  1.50000001788139 0  L 13.4999999821186 0  C 13.4999999821186 0.0830000000000002  13.5000000044703 0.0829999999999997  13.5000000044703 0.0829999999999997  C 14.3284271267476 0.0829999999999997  15 0.754572875253809  15 1.583  C 15 2.41142712474619  14.3284271267476 3.083  13.5000000044703 3.083  Z M 13.4999999821186 10.917  C 13.4999999821186 10.917  13.4999999821186 10.917  13.4999999821186 11  L 1.50000001788139 11  C 1.50000001788139 10.917  1.50000001788139 10.917  1.50000001788139 10.917  C 0.671572895604107 10.917  0 10.2454271247462  0 9.417  C 0 8.58857287525381  0.671572895604107 7.917  1.50000001788139 7.917  C 1.50000001788139 7.917  1.50000001788139 7.917  1.50000001788139 8  L 13.4999999821186 8  C 13.4999999821186 7.917  13.4999999821186 7.917  13.4999999821186 7.917  C 14.3284271043959 7.917  14.9999999776483 8.58857287525381  14.9999999776483 9.417  C 14.9999999776483 10.2454271247462  14.3284271043959 10.917  13.4999999821186 10.917  Z " fill-rule="nonzero" fill="#0881f7" stroke="none" transform="matrix(1 0 0 1 45 25 )" />
  </g>
</svg>