<?xml version="1.0" encoding="utf-8"?>
<svg version="1.1" xmlns:xlink="http://www.w3.org/1999/xlink" width="32px" height="25px" xmlns="http://www.w3.org/2000/svg">
  <g transform="matrix(1 0 0 1 -28 -25 )">
    <path d="M 22.72 7.28  C 22.56 7.92  22.08 8.4  21.44 8.4  L 10.56 8.4  C 9.92 8.4  9.28 7.92  9.28 7.12  L 9.28 1.84  C 9.28 1.2  9.76 0.56  10.56 1  L 21.44 1  C 22.08 0.56  22.72 1.04  22.72 1.84  L 22.72 7.28  Z M 11.84 2.96  L 11.84 6  L 20.32 6  L 20.32 2.96  L 11.84 2.96  Z M 13.92 22.8  C 13.92 23.6  13.28 24.08  12.64 24  L 1.76 24  C 1.12 24.08  0.48 23.6  0.48 22.8  L 0.48 17.36  C 0.48 16.72  0.96 16.08  1.76 16  L 12.64 16  C 13.28 16.08  13.92 16.56  13.92 17.36  L 13.92 22.8  Z M 3.04 18.8  L 3.04 21.68  L 11.52 21.68  L 11.52 18.8  L 3.04 18.8  Z M 31.52 22.8  C 31.36 23.6  30.88 24.08  30.24 24  L 19.36 24  C 18.72 24.08  18.08 23.6  18.08 22.8  L 18.08 17.36  C 18.08 16.72  18.56 16.08  19.36 16  L 30.24 16  C 30.88 16.08  31.52 16.56  31.52 17.36  L 31.52 22.8  Z M 20.48 18.8  L 20.48 21.68  L 28.96 21.68  L 28.96 18.8  L 20.48 18.8  Z " fill-rule="nonzero" fill="#0881f7" stroke="none" transform="matrix(1 0 0 1 28 25 )" />
  </g>
</svg>