<?xml version="1.0" encoding="utf-8"?>
<svg version="1.1" xmlns:xlink="http://www.w3.org/1999/xlink" width="13px" height="13px" xmlns="http://www.w3.org/2000/svg">
  <g transform="matrix(1 0 0 1 -33 -31 )">
    <path d="M 3.48 11.04  C 3.48 11.52  2.84 12.16  2.2 12.16  C 1.56 12.16  0.92 11.68  0.92 10.88  L 0.92 5.92  C 0.92 5.28  1.4 4.64  2.2 4.64  L 9.72 4.64  L 9.72 1.76  C 9.72 1.12  10.2 0.48  11 0.48  C 11.8 0.48  12.28 0.960000000000001  12.28 1.76  L 12.28 5.92  C 12.28 6.56  11.8 7.2  11 7.2  L 3.48 7.2  L 3.48 11.04  Z " fill-rule="nonzero" fill="#0881f7" stroke="none" transform="matrix(1 0 0 1 33 31 )" />
  </g>
</svg>