<?xml version="1.0" encoding="utf-8"?>
<svg version="1.1" xmlns:xlink="http://www.w3.org/1999/xlink" width="13px" height="13px" xmlns="http://www.w3.org/2000/svg">
  <g transform="matrix(1 0 0 1 -42 -31 )">
    <path d="M 12.08 10.88  C 11.92 11.52  11.44 12.16  10.8 12.16  C 10.16 12.16  9.52 11.68  9.52 10.88  L 9.52 7.04  L 2 7.04  C 1.36 7.04  0.720000000000001 6.56  0.720000000000001 5.76  L 0.720000000000001 1.76  C 0.720000000000001 1.12  1.2 0.48  2 0.48  C 2.8 0.48  3.28 0.960000000000001  3.28 1.76  L 3.28 4.64  L 10.8 4.64  C 11.44 4.64  12.08 5.12  12.08 5.92  L 12.08 10.88  Z " fill-rule="nonzero" fill="#0881f7" stroke="none" transform="matrix(1 0 0 1 42 31 )" />
  </g>
</svg>