<?xml version="1.0" encoding="utf-8"?>
<svg version="1.1" xmlns:xlink="http://www.w3.org/1999/xlink" width="16px" height="27px" xmlns="http://www.w3.org/2000/svg">
  <g transform="matrix(1 0 0 1 -40 -28 )">
    <path d="M 0.643520000000001 14.104  C 0.871360000000001 13.80832  1.06336 13.728  1.21952 13.86304  C 1.41664 14.03328  1.9408 14.44704  2.79168 15.10432  L 2.79168 23.23552  C 2.79168 23.53248  3.032 23.77312  3.32864 23.77312  L 12.9952 23.77312  C 13.291858315221 23.7727668350888  13.5321602102173 23.5321785254382  13.53216 23.23552  L 13.53216 3.336  C 13.5321602102173 3.03934147456183  13.291858315221 2.79875316491116  12.9952 2.7984  L 3.32864 2.7984  C 3.03198168477904 2.79875316491116  2.79167978978272 3.03934147456183  2.79168 3.336  L 2.79168 8.13792  C 2.65790461661833 8.10372074819776  2.52652694316732 8.06074774191028  2.3984 8.00928  C 1.79936 7.76992  1.2144 7.32224  0.643519999999999 6.66528  L 0.643519999999997 1.72256  C 0.643519661090041 1.72213323824172  0.643519491635045 1.72170647636776  0.643519491635045 1.7212797144749  C 0.643519491635045 0.831283013911883  1.36472345706177 0.109649689602403  2.25472 0.10912  L 14.06912 0.109119999999999  C 14.9589914705382 0.10982624708736  15.6800005085414 0.831407741470598  15.6800005085414 1.72127949226545  C 15.6800005085414 1.72170632822928  15.6800003390276 1.72213316417081  15.68 1.72256  L 15.68 25.38656  C 15.6800003390276 25.3869868358256  15.6800005085414 25.3874136717743  15.6800005085414 25.3878405077345  C 15.6800005085414 26.2777122585294  14.9589914705382 26.9992937529126  14.06912 27  L 2.25472 27  C 1.36472345706178 26.9994703103976  0.643519491635049 26.2778369860881  0.643519491635049 25.3878402855251  C 0.643519491635049 25.3874135236322  0.643519661090046 25.3869867617583  0.643520000000002 25.38656  L 0.643520000000002 14.10368  Z " fill-rule="nonzero" fill="#0881f7" stroke="none" transform="matrix(1 0 0 1 40 28 )" />
  </g>
</svg>