<?xml version="1.0" encoding="utf-8"?>
<svg version="1.1" xmlns:xlink="http://www.w3.org/1999/xlink" width="20px" height="26px" xmlns="http://www.w3.org/2000/svg">
  <g transform="matrix(1 0 0 1 -32 -23 )">
    <path d="M 14.8192 4.57152  C 14.8192 4.71997414075452  14.6988541407545 4.84032  14.5504 4.84032  L 13.20864 4.84032  C 13.0601858592455 4.84032  12.93984 4.71997414075452  12.93984 4.57152  L 12.93984 3.49568  C 12.9398403153259 3.05069221184274  12.5793874728314 2.68980974736674  12.1344 2.68928  L 3.0048 2.68928  C 2.55993753074451 2.68998613179279  2.19967943957759 3.05081697032246  2.19968 3.49568  L 2.19968 21.24384  C 2.19967968467408 21.6888277881573  2.56013252716856 22.0497102526333  3.00512 22.05024  L 7.83776 22.05024  C 7.98621414075451 22.05024  8.10656 22.1705858592455  8.10656 22.31904  L 8.10656 25.00832  C 8.10656 25.1567741407545  7.98621414075452 25.27712  7.83776 25.27712  L 1.93088 25.27712  C 1.04063355334052 25.2764133324954  0.319469600396849 24.5542465691285  0.32 23.664  L 0.32 1.61344  C 0.319999660972392 1.61301316417322  0.319999491458565 1.61258632822688  0.319999491458565 1.61215949226545  C 0.319999491458565 0.722287741470598  1.04100852946184 0.000706247087361489  1.93088 0  L 13.20832 0  C 14.0981914705382 0.000706247087362673  14.8192005085414 0.722287741470599  14.8192005085414 1.61215949226545  C 14.8192005085414 1.61258632822688  14.8192003390276 1.61301316417322  14.8192 1.61344  L 14.8192 4.57152  Z M 7.936 15.55424  C 6.53248 13.83744  4.96704 11.51712  5.31104 7.71136  C 5.7504 8.74624  6.21632 12.2944  9.7088 14.63136  C 11.76064 16.00416  13.3312 16.8928  14.4208 17.29664  C 14.6576725773537 17.3844610081616  14.923737317061 17.2955064305217  15.06016 17.08288  L 15.82752 15.88928  C 15.8769406274816 15.8121466769139  15.9622412736678 15.765492730066  16.0538488495062 15.765492730066  C 16.1410843098804 15.765492730066  16.222894793967 15.8078265422851  16.27328 15.87904  L 19.65408 20.65184  C 19.7187044410551 20.7428022285146  19.7534239624542 20.8516190077317  19.7534239624542 20.9632005716122  C 19.7534239624542 21.2601088531213  19.5127322439633 21.5008005716122  19.2158239624542 21.5008005716122  L 12.93824 21.5008  C 12.7898129928055 21.5007616403464  12.6695094689917 21.3804270211282  12.6695094689917 21.2320000089768  C 12.6695094689917 21.1791871318245  12.6850671708569 21.1275443799831  12.71424 21.08352  L 13.36896 20.09312  C 13.3981034761665 20.0491102574389  13.413644457351 19.9974940077207  13.413644457351 19.9447095436866  C 13.413644457351 19.8520517188379  13.3659225095993 19.7659264143936  13.28736 19.7168  C 10.62912 18.05376  8.8448 16.66624  7.936 15.55424  Z " fill-rule="nonzero" fill="#0881f7" stroke="none" transform="matrix(1 0 0 1 32 23 )" />
  </g>
</svg>