<?xml version="1.0" encoding="utf-8"?>
<svg version="1.1" xmlns:xlink="http://www.w3.org/1999/xlink" width="23px" height="29px" xmlns="http://www.w3.org/2000/svg">
  <g transform="matrix(1 0 0 1 -34 -26 )">
    <path d="M 0.400417593750001 16.2951595709446  L 4.4482415 1.06382314789626  C 4.58644533265989 0.551077638885358  5.05316080447119 0.196110972709212  5.58419209375 0.199860799188684  L 15.61575571875 0.199860799188685  C 15.9727341759512 0.19981730631487  16.3095625285054 0.365276835280417  16.52771603125 0.64784126935187  C 16.7537029562592 0.925248797252427  16.8312267950421 1.29497781854063  16.735707 1.63979804703464  L 15.103778 8.19951226638842  L 21.63149403125 8.19951226638842  C 22.0972066199108 8.19946465151271  22.518438297836 8.47609438952646  22.70344740625 8.903481594502  C 22.8894723793541 9.3263121702463  22.8009184710973 9.81968392784434  22.47945715625 10.1514272301352  L 5.10421296875 28.6306221556165  C 4.73878776679301 29.0116192969615  4.16728245329733 29.1090349700632  3.69627421875 28.8706117021325  C 3.22343791730657 28.6270883685171  2.97879087541981 28.0915097463188  3.10429996875 27.5746681634462  L 5.44019834375 17.7990940645281  L 1.56836678125 17.7990940645281  C 1.20687718042687 17.7992625241868  0.865116887845368 17.6342747993881  0.64040715625 17.3511135631149  C 0.392211407222567 17.0597196437658  0.302548868183399 16.6652045029395  0.400417593750001 16.2951595709446  Z M 14.06382321875 2.51975970717661  L 6.480153125 2.51975970717661  L 3.08830065625 15.431197222237  L 6.928133625 15.431197222237  C 7.28133821833238 15.4319504713609  7.61576160813966 15.5903615299393  7.84009396875 15.8631783809658  C 8.06456405763731 16.1411951013485  8.14730943115362 16.5076388937332  8.06408421875 16.8551351898985  L 6.4641538125 23.8468305679811  L 19.00760815625 10.4554139911387  L 13.59984340625 10.4554139911387  C 12.9538382090526 10.4445243039397  12.4358498514019 9.91773067915387  12.4358498514019 9.27163374795588  C 12.4358498514019 9.18548209021967  12.4452531873606 9.09958778474812  12.4638928125 9.0154767120428  L 14.06382321875 2.51975970717661  Z " fill-rule="nonzero" fill="#0881f7" stroke="none" transform="matrix(1 0 0 1 34 26 )" />
  </g>
</svg>