<?xml version="1.0" encoding="utf-8"?>
<svg version="1.1" xmlns:xlink="http://www.w3.org/1999/xlink" width="5px" height="9px" xmlns="http://www.w3.org/2000/svg">
  <g transform="matrix(1 0 0 1 -40 -30 )">
    <path d="M 2.40006959375 1.175644375  C 2.62419806837022 0.968976945776462  2.94341343876097 0.901450605895457  3.23203340625 0.999652000000001  C 3.5046813368892 1.09848245722633  3.72836207625259 1.29922159206227  3.85600625 1.55962765625  C 3.99673006572726 1.84180174414367  4.03626739486907 2.16374849150681  3.96800140625 2.471588  L 2.8000521875 8.07134440625  C 2.74599370848916 8.59322027788565  2.30621456457652 8.9897980116195  1.78154634126922 8.9897980116195  C 1.70980800781222 8.9897980116195  1.63826828467168 8.98225908591071  1.56810578125 8.9673054375  C 0.973186737063498 8.73633020081658  0.643778880368892 8.09810247595749  0.800139187500001 7.47937015625  L 1.968088375 1.92761165625  C 2.00863287036879 1.63025513156571  2.16362132200519 1.36046042859363  2.40006959375 1.175644375  Z " fill-rule="nonzero" fill="#0881f7" stroke="none" transform="matrix(1 0 0 1 40 30 )" />
  </g>
</svg>