<?xml version="1.0" encoding="utf-8"?>
<svg version="1.1" xmlns:xlink="http://www.w3.org/1999/xlink" width="18px" height="17px" xmlns="http://www.w3.org/2000/svg">
  <g transform="matrix(1 0 0 1 -322 -675 )">
    <path d="M 17.28 8.23157894736842  C 17.28 12.7052631578947  13.5 16.4631578947368  9 16.4631578947368  C 4.5 16.4631578947368  0.720000000000001 12.7052631578947  0.720000000000001 8.23157894736842  C 0.720000000000001 3.7578947368421  4.5 0  9 0  C 13.5 0  17.28 3.75789473684211  17.28 8.23157894736842  Z M 16.2 8.23157894736842  C 16.2 4.29473684210526  12.96 1.07368421052632  9 1.07368421052632  C 5.04 1.07368421052632  1.8 4.29473684210526  1.8 8.23157894736842  C 1.8 12.1684210526316  5.04 15.3894736842105  9 15.3894736842105  C 12.96 15.3894736842105  16.2 12.1684210526316  16.2 8.23157894736842  Z " fill-rule="nonzero" fill="#9a9c9c" stroke="none" transform="matrix(1 0 0 1 322 675 )" />
  </g>
</svg>