<?xml version="1.0" encoding="utf-8"?>
<svg version="1.1" xmlns:xlink="http://www.w3.org/1999/xlink" width="11px" height="5px" xmlns="http://www.w3.org/2000/svg">
  <g transform="matrix(1 0 0 1 -326 -684 )">
    <path d="M 10.3214285714286 1.25263157894733  C 9.42857142857144 3.22105263157891  7.46428571428572 4.47368421052636  5.5 4.47368421052636  C 3.35714285714289 4.47368421052636  1.57142857142856 3.22105263157891  1.03571428571428 1.25263157894733  C 0.857142857142833 0.894736842105317  1.03571428571428 0.715789473684254  1.39285714285717 0.53684210526319  C 1.75 0.53684210526319  1.92857142857144 0.53684210526319  2.10714285714289 0.894736842105317  C 2.64285714285717 2.50526315789477  4.07142857142856 3.39999999999998  5.67857142857144 3.39999999999998  C 7.28571428571428 3.39999999999998  8.71428571428572 2.32631578947371  9.25 0.894736842105317  C 9.42857142857144 0.53684210526319  9.60714285714283 0.53684210526319  9.96428571428572 0.53684210526319  C 10.3214285714286 0.715789473684254  10.3214285714286 0.894736842105317  10.3214285714286 1.25263157894733  Z " fill-rule="nonzero" fill="#d9001b" stroke="none" transform="matrix(1 0 0 1 326 684 )" />
  </g>
</svg>