<?xml version="1.0" encoding="utf-8"?>
<svg version="1.1" xmlns:xlink="http://www.w3.org/1999/xlink" width="25px" height="11px" xmlns="http://www.w3.org/2000/svg">
  <g transform="matrix(1 0 0 1 -319 -691 )">
    <path d="M 25 9.56842105263161  C 25 9.92631578947373  24.8214285714286 10.2842105263157  24.4642857142857 10.2842105263157  C 24.2857142857143 10.2842105263157  23.9285714285714 10.1052631578947  23.9285714285714 9.74736842105267  C 23.2142857142857 5.09473684210525  18.2142857142857 1.69473684210527  12.5 1.69473684210527  C 6.78571428571428 1.69473684210527  1.96428571428572 5.09473684210525  1.07142857142856 9.74736842105267  C 1.07142857142856 10.1052631578947  0.714285714285722 10.2842105263157  0.535714285714278 10.1052631578947  C 0.178571428571445 10.1052631578947  0 9.74736842105267  0 9.56842105263161  C 0.892857142857167 4.55789473684206  6.25 0.621052631578891  12.5 0.621052631578891  C 18.75 0.621052631578891  24.1071428571428 4.55789473684206  25 9.56842105263161  Z " fill-rule="nonzero" fill="#0881f7" stroke="none" transform="matrix(1 0 0 1 319 691 )" />
  </g>
</svg>