<?xml version="1.0" encoding="utf-8"?>
<svg version="1.1" xmlns:xlink="http://www.w3.org/1999/xlink" width="20px" height="17px" xmlns="http://www.w3.org/2000/svg">
  <g transform="matrix(1 0 0 1 -162 -822 )">
    <path d="M 10.80213334375 6.33226665625  L 19.2944 2.24586665625  C 19.62506665625 2.05706665625  19.74026665625 1.6357333125  19.55253334375 1.30453334375  C 19.43071479964 1.0887622970954  19.2021336801985 0.955318438460655  18.9543496971336 0.955318438460655  C 18.8351422564334 0.955318438460655  18.717986643454 0.986339943981536  18.6144 1.04533334375  L 10.04266665625 5.17866665625  L 2.00533334375 1.04586665625  C 1.90154061255168 0.986557790594343  1.78406721469871 0.95536161220371  1.6645244499868 0.95536161220371  C 1.41697735164942 0.95536161220371  1.18857649727089 1.08855265943271  1.06666665625 1.304  C 0.87806096176369 1.63513918095953  0.993052837569288 2.05645792363378  1.32373334375 2.24586665625  L 9.4384 6.42186665625  L 9.4384 16.26506665625  C 9.4384 16.51146665625  9.5696 16.7397333125  9.7824 16.8624  C 9.99573334375 16.98613334375  10.2576 16.98613334375  10.4704 16.8624  C 10.68373334375 16.73973334375  10.81493334375 16.51146665625  10.81493334375 16.26506665625  L 10.81493334375 6.39413334375  C 10.81493334375 6.3728  10.8042666875 6.3536  10.80213334375 6.33226665625  Z " fill-rule="nonzero" fill="#9a9c9c" stroke="none" transform="matrix(1 0 0 1 162 822 )" />
  </g>
</svg>