<?xml version="1.0" encoding="utf-8"?>
<svg version="1.1" xmlns:xlink="http://www.w3.org/1999/xlink" width="28px" height="32px" xmlns="http://www.w3.org/2000/svg">
  <g transform="matrix(1 0 0 1 -158 -813 )">
    <path d="M 25.89653334375 6.79733334375  L 25.89706665625 6.79786665625  C 26.9968493101607 7.44357569221998  27.6719423762811 8.62387218848267  27.67093334375 9.8992  L 27.67093334375 22.2704  C 27.6721329919068 23.5619519022232  26.9797479612385 24.7546869360031  25.8576 25.39413334375  L 15.90133334375 31.05386665625  C 14.8101606189623 31.6748393793016  13.4725060685377 31.6748393793016  12.38133334375 31.05386665625  L 2.42613334375 25.39413334375  C 1.30443807285861 24.7545624394792  0.612327922889844 23.5621537786327  1 22.27093334375  L 1 9.89973334375  C 0.612132406834947 8.62435302288391  1.28700453521684 7.44388494133705  2.38666665625 6.79786665625  L 12.33866665625 0.968533343750001  C 13.4502730743941 0.317862025713474  14.8265269256059 0.317862025713474  15.93813334375 0.968533343750001  L 25.89653334375 6.79786665625  Z M 15.34506665625 1.98133334375  C 14.5995951910275 1.54501231265475  13.6766714652225 1.54501231265475  12.9312 1.98133334375  L 2.98133334375 7.80906665625  C 2.24026559563569 8.24425968175547  1.78555671597627 9.03979721621558  2 9.8992  L 2 22.27093334375  C 1.78666665625 23.1424  2.2528 23.9456  3.0064 24.3744  L 12.96213334375 30.03413334375  C 13.69333334375 30.45013334375  14.5898666875 30.45013334375  15.3216 30.03413334375  L 25.2768 24.3744  C 26.0325826139958 23.9439222458423  26.4989486625193 23.1407136560693  26 22.27093334375  L 26 9.89866665625  C 26.49813334375 9.04  26.04373334375 8.2453333125  25.30346665625 7.81013334375  L 15.34506665625 1.9808  Z " fill-rule="nonzero" fill="#9a9c9c" stroke="none" transform="matrix(1 0 0 1 158 813 )" />
  </g>
</svg>