<?xml version="1.0" encoding="utf-8"?>
<svg version="1.1" xmlns:xlink="http://www.w3.org/1999/xlink" width="29px" height="28px" xmlns="http://www.w3.org/2000/svg">
  <g transform="matrix(1 0 0 1 -273 -815 )">
    <path d="M 28.00625 14.059375  C 28.00625 6.384375  21.765625 0.143750000000002  14.090625 0.14375  C 6.41875 0.14375  0.174999999999999 6.3875  0.174999999999999 14.059375  C 0.174999999999999 21.73125  6.41875 27.975  14.090625 27.975  C 21.7625 27.975  28.00625 21.73125  28.00625 14.059375  Z M 14.090625 1.578125  C 20.971875 1.578125  26.571875 7.178125  26.571875 14.059375  C 26.571875 20.940625  20.971875 26.540625  14.090625 26.540625  C 7.209375 26.540625  1.609375 20.940625  1.609375 14.059375  C 1.609375 7.178125  7.209375 1.578125  14.090625 1.578125  Z " fill-rule="nonzero" fill="#0881f7" stroke="none" transform="matrix(1 0 0 1 273 815 )" />
  </g>
</svg>