<?xml version="1.0" encoding="utf-8"?>
<svg version="1.1" xmlns:xlink="http://www.w3.org/1999/xlink" width="14px" height="14px" xmlns="http://www.w3.org/2000/svg">
  <g transform="matrix(1 0 0 1 -280 -822 )">
    <path d="M 13.60625 0.700000000000003  C 13.465625 0.487500000000002  13.190625 0.400000000000002  12.953125 0.503125000000001  L 4.503125 4.2  C 4.38125 4.253125  4.284375 4.35  4.23125 4.471875  L 0.5375 12.921875  C 0.465624999999999 13.0875  0.478125 13.26875  0.578125 13.41875  C 0.678125 13.56875  0.840624999999999 13.659375  1.015625 13.659375  C 1.0875 13.659375  1.159375 13.64375  1.228125 13.615625  L 9.678125 9.91875  C 9.8 9.865625  9.896875 9.76875  9.95 9.646875  L 13.646875 1.196875  C 13.71875 1.03125  13.70625 0.850000000000001  13.60625 0.700000000000003  Z M 11.8625 2.390625  C 11.934375 2.509375  11.9375 2.653125  11.875 2.784375  L 8.7 9.13125  C 8.65625 9.21875  8.58125 9.290625  8.4875 9.328125  L 3.328125 11.390625  C 3.14375 11.465625  2.9375 11.39375  2.834375 11.23125  C 2.759375 11.115625  2.75 10.971875  2.80625 10.84375  L 5.45625 5.015625  C 5.496875 4.925  5.56875 4.853125  5.659375 4.8125  L 11.34375 2.23125  C 11.4 2.20625  11.45625 2.19375  11.515625 2.19375  C 11.653125 2.19375  11.784375 2.26875  11.8625 2.390625  Z " fill-rule="nonzero" fill="#9a9c9c" stroke="none" transform="matrix(1 0 0 1 280 822 )" />
  </g>
</svg>