<?xml version="1.0" encoding="utf-8"?>
<svg version="1.1" xmlns:xlink="http://www.w3.org/1999/xlink" width="31px" height="24px" xmlns="http://www.w3.org/2000/svg">
  <g transform="matrix(1 0 0 1 -38 -817 )">
    <path d="M 7.875 21.5  L 7.875 23  L 23.7083333457031 23  L 23.7083333457031 21.5  C 26.875 21.1833333457031  29.25 18.4916666542969  29.25 15.1666666542969  C 29.25 11.6833333085938  26.4 8.83333330859375  22.9166666542969 8.83333334570318  L 22.7583333457031 8.83333334570318  C 21.9666666914063 5.19166669140623  18.8 2.5  15 2.5  C 10.5666666542969 2.5  7.08333334570313 5.98333334570316  7.08333334570313 10.4166666542969  C 4.39166669140626 10.7333333085937  2.33333334570313 13.1083333085937  2.33333334570313 15.9583333457032  C 2.33333334570312 18.9666666542969  4.86666665429688 21.5  7.875 21.5  Z M 30.8333333457031 15.1666666542969  C 30.8333333457031 19.2833333085938  27.6666666914062 22.6083333085937  23.7083333457031 23  L 7.875 23  C 3.91666665429688 23.0833333457031  0.75 19.9166666542969  0.75 15.9583333457031  C 0.75 12.7916666914062  2.80833334570313 10.1  5.5 9.14999999999998  C 6.13333334570312 4.55833334570309  10.0916666542969 0.916666654296932  15 0.916666654296932  C 19.1166666542969 0.916666654296932  22.7583333457031 3.60833330859373  24.025 7.25  C 27.825 7.72500000000002  30.8333333457031 11.05  30.8333333457031 15.1666666542969  Z " fill-rule="nonzero" fill="#0881f7" stroke="none" transform="matrix(1 0 0 1 38 817 )" />
  </g>
</svg>