<?xml version="1.0" encoding="utf-8"?>
<svg version="1.1" xmlns:xlink="http://www.w3.org/1999/xlink" width="16px" height="19px" xmlns="http://www.w3.org/2000/svg">
  <g transform="matrix(1 0 0 1 -46 -827 )">
    <path d="M 0.222222229166668 2.94047619754463  C 0.222222229166668 1.56636905468747  1.31666666666667 0.452380966517808  2.66666666666666 0.452380945312484  L 13.3333333333333 0.452380945312484  C 14.6833333333333 0.452380945312484  15.7777777708333 1.56636903348215  15.7777777708333 2.94047619754463  L 15.7777777708333 16.0595238024554  C 15.7777777708333 17.4336309453125  14.6833333333333 18.5476190334822  13.3333333333333 18.5476190546875  L 2.66666666666666 18.5476190546875  C 1.31666666666666 18.5476190546875  0.222222229166668 17.4336309665179  0.222222229166668 16.0595238024554  L 0.222222229166668 2.94047619754463  Z M 13.3333333333333 2  L 2.66666666666666 2  L 2.66666666666666 1.80952380245537  C 2.05301694846776 1.80952380245537  1.5555555625 2.31586842745821  1.5555555625 2.9404761763393  L 1.5555555625 16.0595238024554  C 1.5555555625 16.6841315725418  2.05301694846776 17.1904761975446  2.66666666666666 17.1904761975446  C 2.66666666666666 17.1904761975446  2.66666666666666 17.1904761975446  2.66666666666666 17  L 13.3333333333333 17  C 13.3333333333333 17.1904761975446  13.3333333333333 17.1904761975446  13.3333333333333 17.1904761975446  C 13.9469830515322 17.1904761975446  14.4444444375 16.6841315725418  14.4444444375 16.0595238236607  L 14.4444444375 2.94047619754463  C 14.4444444375 2.31586842745821  13.9469830515322 1.80952380245537  13.3333333333333 1.80952380245537  L 13.3333333333333 2  Z " fill-rule="nonzero" fill="#0881f7" stroke="none" transform="matrix(1 0 0 1 46 827 )" />
  </g>
</svg>