<?xml version="1.0" encoding="utf-8"?>
<svg version="1.1" xmlns:xlink="http://www.w3.org/1999/xlink" width="15px" height="15px" xmlns="http://www.w3.org/2000/svg">
  <defs>
    <linearGradient gradientUnits="userSpaceOnUse" x1="7.5" y1="15" x2="7.5" y2="0" id="LinearGradient172">
      <stop id="Stop173" stop-color="#f59a23" offset="0" />
      <stop id="Stop174" stop-color="#d9001b" offset="1" />
    </linearGradient>
  </defs>
  <g transform="matrix(1 0 0 1 -17 0 )">
    <path d="M 14.7797560890625 2.8460145778125  C 14.7795740446875 1.68657351125  13.839678578125 0.746313955624998  12.6802375109375 0.746313955624998  L 2.84583253343749 0.746313955624998  C 1.68639146687502 0.746313955624998  0.746313955624998 1.6862094221875  0.746313955624998 2.8458325334375  L 0.746313955624998 12.6802375109375  C 0.746313955624998 13.8396785775  1.6863914665625 14.77975608875  2.84583253343749 14.7797560890625  L 13.1 14.7797560890625  L 14.7797560890625 14.7797560890625  L 14.7797560890625 13.4  L 14.7797560890625 2.8460145778125  Z M 12.3390862221875 3.1868017778125  L 12.3390862221875 12.3390862221875  L 3.18680177781249 12.3390862221875  L 3.18680177781249 3.1868017778125  L 12.3390862221875 3.1868017778125  Z " fill-rule="nonzero" fill="url(#LinearGradient172)" stroke="none" transform="matrix(1 0 0 1 17 0 )" />
  </g>
</svg>