<?xml version="1.0" encoding="utf-8"?>
<svg version="1.1" xmlns:xlink="http://www.w3.org/1999/xlink" width="22px" height="20px" xmlns="http://www.w3.org/2000/svg">
  <g transform="matrix(1 0 0 1 -382 -814 )">
    <path d="M 21.12 9.68421052631579  C 21.12 14.9473684210526  16.5 19.3684210526316  11 19.3684210526316  C 5.5 19.3684210526316  0.880000000000001 14.9473684210526  0.880000000000001 9.68421052631579  C 0.880000000000001 4.42105263157895  5.5 0  11 0  C 16.5 0  21.12 4.42105263157895  21.12 9.68421052631579  Z M 19.8 9.68421052631579  C 19.8 5.05263157894737  15.84 1.26315789473684  11 1.26315789473684  C 6.16 1.26315789473684  2.2 5.05263157894737  2.2 9.68421052631579  C 2.2 14.3157894736842  6.16 18.1052631578947  11 18.1052631578947  C 15.84 18.1052631578947  19.8 14.3157894736842  19.8 9.68421052631579  Z " fill-rule="nonzero" fill="#0881f7" stroke="none" transform="matrix(1 0 0 1 382 814 )" />
  </g>
</svg>