<?xml version="1.0" encoding="utf-8"?>
<svg version="1.1" xmlns:xlink="http://www.w3.org/1999/xlink" width="13px" height="6px" xmlns="http://www.w3.org/2000/svg">
  <g transform="matrix(1 0 0 1 -387 -825 )">
    <path d="M 12.1980519480519 1.5031578947368  C 11.1428571428572 3.8652631578947  8.82142857142858 5.36842105263163  6.5 5.36842105263163  C 3.96753246753251 5.36842105263163  1.85714285714284 3.8652631578947  1.22402597402596 1.5031578947368  C 1.01298701298698 1.07368421052638  1.22402597402596 0.858947368421104  1.64610389610392 0.644210526315828  C 2.06818181818182 0.644210526315828  2.2792207792208 0.644210526315828  2.49025974025978 1.07368421052638  C 3.12337662337665 3.00631578947373  4.81168831168829 4.07999999999997  6.71103896103898 4.07999999999997  C 8.6103896103896 4.07999999999997  10.2987012987013 2.79157894736845  10.9318181818182 1.07368421052638  C 11.1428571428572 0.644210526315828  11.3538961038961 0.644210526315828  11.775974025974 0.644210526315828  C 12.1980519480519 0.858947368421104  12.1980519480519 1.07368421052638  12.1980519480519 1.5031578947368  Z " fill-rule="nonzero" fill="#9a9c9c" stroke="none" transform="matrix(1 0 0 1 387 825 )" />
  </g>
</svg>