<?xml version="1.0" encoding="utf-8"?>
<svg version="1.1" xmlns:xlink="http://www.w3.org/1999/xlink" width="30px" height="13px" xmlns="http://www.w3.org/2000/svg">
  <g transform="matrix(1 0 0 1 -378 -833 )">
    <path d="M 30 11.3081339712919  C 30 11.731100478469  29.7857142857143 12.1540669856459  29.3571428571429 12.1540669856459  C 29.1428571428571 12.1540669856459  28.7142857142857 11.9425837320574  28.7142857142857 11.5196172248804  C 27.8571428571429 6.02105263157893  21.8571428571429 2.00287081339714  15 2.00287081339714  C 8.14285714285713 2.00287081339714  2.35714285714287 6.02105263157893  1.28571428571427 11.5196172248804  C 1.28571428571427 11.9425837320574  0.857142857142867 12.1540669856459  0.642857142857133 11.9425837320574  C 0.214285714285734 11.9425837320574  0 11.5196172248804  0 11.3081339712919  C 1.0714285714286 5.38660287081334  7.5 0.733971291865962  15 0.733971291865962  C 22.5 0.733971291865962  28.9285714285714 5.38660287081334  30 11.3081339712919  Z " fill-rule="nonzero" fill="#9a9c9c" stroke="none" transform="matrix(1 0 0 1 378 833 )" />
  </g>
</svg>