<?xml version="1.0" encoding="utf-8"?>
<svg version="1.1" xmlns:xlink="http://www.w3.org/1999/xlink" width="22px" height="25px" xmlns="http://www.w3.org/2000/svg">
  <g transform="matrix(1 0 0 1 -189 0 )">
    <path d="M 0.333343999999999 0  L 21.666656 0  L 21.666656 20.222208  C 21.666656 22.799552  19.278848 24.888896  16.333344 24.888896  L 5.666656 24.888896  C 2.721152 24.888896  0.333343999999999 22.799552  0.333343999999999 20.222208  L 0.333343999999999 0  Z M 6.719584 12.87872  L 4.805344 9.777792  L 3.888864 9.777792  L 3.888864 15.111104  L 4.977376 15.111104  L 4.977376 11.980608  L 5.0024 11.980608  L 6.926016 15.111104  L 7.833088 15.111104  L 7.833088 9.777792  L 6.744608 9.777792  L 6.744608 12.87872  L 6.719584 12.87872  Z M 11.608352 10.871808  L 11.608352 9.777792  L 8.514944 9.777792  L 8.514944 15.111104  L 11.608384 15.111104  L 11.608384 14.017088  L 9.662848 14.017088  L 9.662848 12.930464  L 11.492608 12.930464  L 11.492608 11.932544  L 9.662848 11.932544  L 9.662848 10.871808  L 11.608352 10.871808  Z M 13.838496 13.381376  L 13.228576 9.777792  L 12.043136 9.777792  L 13.222336 15.111104  L 14.304576 15.111104  L 15.064608 11.781024  L 15.089632 11.781024  L 15.849696 15.111104  L 16.931936 15.111104  L 18.111136 9.777792  L 16.925664 9.777792  L 16.315744 13.381376  L 16.29072 13.381376  L 15.536896 9.777792  L 14.617344 9.777792  L 13.86352 13.381376  L 13.838496 13.381376  Z " fill-rule="nonzero" fill="#d81e06" stroke="none" transform="matrix(1 0 0 1 189 0 )" />
  </g>
</svg>